# xmcd
#
# Track frame offsets:
#	150
#	13465
#	30690
#	40777
#	52907
#	62200
#	83157
#	94277
#	104745
#	122937
#	132890
#	144737
#
# Disc length: 2145 seconds
#
# Revision: 0
# Processed by: cddbd v1.5.2PL0 Copyright (c) Steve Scherf et al.
# Submitted via: EZCDAudioConverter 6.0.5.1
#
DISCID=af085f0c
DTITLE=Manon Bédard - Allons Swinger
DYEAR=1998
DGENRE=Folklore/Country/Pop
TTITLE0=L'arbre est dans ses feuilles
TTITLE1=Allons swinger
TTITLE2=L'amour d'un cow-boy
TTITLE3=Le chant tyrolien de Papa
TTITLE4=La gigue du printemps
TTITLE5=River blue
TTITLE6=Les cloches de ma vallée
TTITLE7=Dans la prison de Londres
TTITLE8=À ma mère (perce les nuages)
TTITLE9=Tout le monde est malheureux
TTITLE10=Au chant de l'alouette
TTITLE11=Yodeling
EXTD=
EXTT0=
EXTT1=
EXTT2=
EXTT3=
EXTT4=
EXTT5=
EXTT6=
EXTT7=
EXTT8=
EXTT9=
EXTT10=
EXTT11=
PLAYORDER=
